<svg width="14" height="18" viewBox="0 0 14 18" fill="none" xmlns="http://www.w3.org/2000/svg">
<g id="file-medical 1" clip-path="url(#clip0_1856_1688)">
<path id="Vector" d="M9 0V4.5H13.5L9 0ZM7.875 4.5V0H1.6875C0.773438 0 0 0.773438 0 1.6875V16.3125C0 17.2266 0.773438 18 1.6875 18H11.8125C12.7266 18 13.5 17.2266 13.5 16.3125V5.625H9C8.36719 5.625 7.875 5.13281 7.875 4.5ZM10.125 10.6172V11.8828C10.125 12.1641 9.91406 12.375 9.63281 12.375H7.875V14.1328C7.875 14.4141 7.66406 14.625 7.38281 14.625H6.11719C5.83594 14.625 5.625 14.4141 5.625 14.1328V12.375H3.86719C3.58594 12.375 3.375 12.1641 3.375 11.8828V10.6172C3.375 10.3359 3.58594 10.125 3.86719 10.125H5.625V8.36719C5.625 8.08594 5.83594 7.875 6.11719 7.875H7.38281C7.66406 7.875 7.875 8.08594 7.875 8.36719V10.125H9.63281C9.91406 10.125 10.125 10.3359 10.125 10.6172Z" fill="#3964D8"/>
</g>
<defs>
<clipPath id="clip0_1856_1688">
<rect width="13.5" height="18" fill="white"/>
</clipPath>
</defs>
</svg>
