<svg width="13" height="14" viewBox="0 0 13 14" fill="none" xmlns="http://www.w3.org/2000/svg">
<g id="trash-can 1" clip-path="url(#clip0_1871_638)">
<path id="Vector" d="M11.8125 2.1875H9.57031L8.64062 0.628906C8.39453 0.246094 7.95703 0 7.51953 0H4.73047C4.29297 0 3.85547 0.246094 3.60938 0.628906L2.67969 2.1875H0.4375C0.191406 2.1875 0 2.37891 0 2.625V3.0625C0 3.30859 0.191406 3.5 0.4375 3.5H0.875V12.25C0.875 13.207 1.66797 14 2.625 14H9.625C10.582 14 11.375 13.207 11.375 12.25V3.5H11.8125C12.0586 3.5 12.25 3.30859 12.25 3.0625V2.625C12.25 2.37891 12.0586 2.1875 11.8125 2.1875ZM4.70312 1.39453C4.73047 1.33984 4.78516 1.3125 4.83984 1.3125H7.41016C7.46484 1.3125 7.51953 1.33984 7.54688 1.39453L8.03906 2.1875H4.21094L4.70312 1.39453ZM9.625 12.6875H2.625C2.37891 12.6875 2.1875 12.4961 2.1875 12.25V3.5H10.0625V12.25C10.0625 12.4961 9.87109 12.6875 9.625 12.6875ZM6.125 11.375C6.37109 11.375 6.5625 11.1836 6.5625 10.9375V5.25C6.5625 5.00391 6.37109 4.8125 6.125 4.8125C5.87891 4.8125 5.6875 5.00391 5.6875 5.25V10.9375C5.6875 11.1836 5.87891 11.375 6.125 11.375ZM3.9375 11.375C4.18359 11.375 4.375 11.1836 4.375 10.9375V5.25C4.375 5.00391 4.18359 4.8125 3.9375 4.8125C3.69141 4.8125 3.5 5.00391 3.5 5.25V10.9375C3.5 11.1836 3.69141 11.375 3.9375 11.375ZM8.3125 11.375C8.55859 11.375 8.75 11.1836 8.75 10.9375V5.25C8.75 5.00391 8.55859 4.8125 8.3125 4.8125C8.06641 4.8125 7.875 5.00391 7.875 5.25V10.9375C7.875 11.1836 8.06641 11.375 8.3125 11.375Z" fill="#F6403F"/>
</g>
<defs>
<clipPath id="clip0_1871_638">
<rect width="12.25" height="14" fill="white"/>
</clipPath>
</defs>
</svg>
